<svg enable-background="new 0 0 512 512" version="1.1" viewBox="0 0 512 512" xml:space="preserve" xmlns="http://www.w3.org/2000/svg"><g>
<circle cx="256" cy="256" r="256" fill="#548ca8"/>
<path d="m262.74 511.91c136-3.515 245.61-113.1 249.17-249.09l-145.68-145.78-23.297 31.927-42.713-44.06-7.237 6.608-24.04-24.04-33.051 13.369v22.411l73.821 73.821-92.834 134.43-4.546 10.969-66.555 52.464 116.97 116.96z" fill="#334257"/>
<path d="m358.14 398.22h-204.28c-6.427 0-11.636-5.21-11.636-11.636v-261.17c0-6.427 5.21-11.636 11.636-11.636h204.28c6.427 0 11.636 5.21 11.636 11.636v261.17c0 6.427-5.21 11.636-11.637 11.636z" fill="#eee"/>
<path d="m358.14 113.78h-102.72v284.44h102.72c6.427 0 11.636-5.21 11.636-11.636v-261.17c1e-3 -6.427-5.209-11.636-11.636-11.636z" fill="#eee"/>
</g><polygon points="311.31 128 156.44 128 156.44 384 355.56 384 355.56 172.25" fill="#fff"/>
<polygon points="355.56 172.25 311.31 128 255.43 128 255.43 384 355.56 384" fill="#D0D1D3"/>
<polygon points="311.31 172.25 355.56 172.25 311.31 128" fill="#A6A8AA"/>
<path d="m295.9 103.32h-19.453c0-11.295-9.157-20.452-20.452-20.452s-20.452 9.157-20.452 20.452h-19.453c-3.668 0-6.64 2.974-6.64 6.64v33.264c0 3.668 2.974 6.64 6.64 6.64h79.81c3.668 0 6.641-2.974 6.641-6.64v-33.264c-1e-3 -3.668-2.974-6.64-6.641-6.64zm-39.905 7.053c-3.894 0-7.053-3.158-7.053-7.052s3.158-7.052 7.053-7.052c3.894 0 7.052 3.158 7.052 7.052 0 3.893-3.158 7.052-7.052 7.052z" fill="#476072"/>
<path d="m295.9 103.32h-19.453c0-11.295-9.157-20.452-20.452-20.452-0.193 0-0.381 0.024-0.574 0.029v13.428c0.193-0.016 0.378-0.059 0.574-0.059 3.894 0 7.052 3.158 7.052 7.052s-3.158 7.053-7.052 7.053c-0.197 0-0.381-0.041-0.574-0.059v39.552h40.479c3.668 0 6.641-2.974 6.641-6.64v-33.263c-1e-3 -3.669-2.974-6.641-6.641-6.641z" fill="#476072"/>
<g fill="#386895">
	<path d="m209.02 201.7h-33.616v-33.616h33.616v33.616zm-28.445-5.172h23.273v-23.273h-23.273v23.273z"/>
	<path d="m209.02 258.59h-33.616v-33.616h33.616v33.616zm-28.445-5.172h23.273v-23.273h-23.273v23.273z"/>
	<path d="m209.02 315.48h-33.616v-33.616h33.616v33.616zm-28.445-5.172h23.273v-23.273h-23.273v23.273z"/>
</g>
<g fill="#A6A8AA">
	<rect x="227.56" y="177.48" width="56.606" height="4.003"/>
	<rect x="227.56" y="195.11" width="85.333" height="4.003"/>
	<rect x="227.56" y="234.36" width="85.333" height="4.003"/>
	<rect x="227.56" y="252" width="56.606" height="4.003"/>
	<rect x="227.56" y="291.25" width="113.78" height="4.003"/>
	<rect x="227.56" y="308.89" width="85.333" height="4.003"/>
</g>
<path d="m191.35 306.86c-0.883 0-1.764-0.336-2.438-1.01l-10.343-10.343c-1.346-1.346-1.346-3.529 0-4.875s3.529-1.346 4.875 0l7.906 7.906 23.421-23.421c1.346-1.346 3.529-1.346 4.875 0s1.346 3.529 0 4.875l-25.859 25.859c-0.674 0.673-1.555 1.009-2.437 1.009z" fill="#548ca8"/>















</svg>
